<?xml version="1.0" encoding="UTF-8" standalone="no"?>
<!-- Created with Inkscape (http://www.inkscape.org/) -->

<svg
   xmlns:dc="http://purl.org/dc/elements/1.1/"
   xmlns:cc="http://creativecommons.org/ns#"
   xmlns:rdf="http://www.w3.org/1999/02/22-rdf-syntax-ns#"
   xmlns:svg="http://www.w3.org/2000/svg"
   xmlns="http://www.w3.org/2000/svg"
   xmlns:xlink="http://www.w3.org/1999/xlink"
   xmlns:sodipodi="http://sodipodi.sourceforge.net/DTD/sodipodi-0.dtd"
   xmlns:inkscape="http://www.inkscape.org/namespaces/inkscape"
   width="854.01562"
   height="263.55664"
   id="svg2"
   version="1.1"
   inkscape:version="0.91 r13725"
   sodipodi:docname="nuvla_logo_red_on_transparent.svg"
   inkscape:export-filename="/Users/sixsq_rob/Dropbox/dev/design/20140121_Multimedia_image_repo_canvas/NuvlaBox/nuvlabox_logo_red_on_white_64px.png"
   inkscape:export-xdpi="3.5799999"
   inkscape:export-ydpi="3.5799999">
  <title
     id="title4041">NuvlaBox Logo</title>
  <defs
     id="defs4">
    <inkscape:path-effect
       effect="skeletal"
       id="path-effect3203"
       is_visible="true"
       pattern="m 0,-7 c 0,-2.76 2.24,-5 5,-5 2.76,0 5,2.24 5,5 0,2.76 -2.24,5 -5,5 -2.76,0 -5,-2.24 -5,-5 z"
       copytype="single_stretched"
       prop_scale="1"
       scale_y_rel="false"
       spacing="0"
       normal_offset="0"
       tang_offset="0"
       prop_units="false"
       vertical_pattern="false"
       fuse_tolerance="0" />
    <color-profile
       name="sRGB-IEC61966-2.1"
       xlink:href="/System/Library/ColorSync/Profiles/sRGB Profile.icc"
       id="color-profile2985" />
  </defs>
  <sodipodi:namedview
     id="base"
     pagecolor="#ffffff"
     bordercolor="#666666"
     borderopacity="1.0"
     inkscape:pageopacity="0.0"
     inkscape:pageshadow="2"
     inkscape:zoom="1.979899"
     inkscape:cx="199.27483"
     inkscape:cy="140.59528"
     inkscape:document-units="px"
     inkscape:current-layer="g4246"
     showgrid="false"
     inkscape:showpageshadow="false"
     borderlayer="true"
     inkscape:window-width="1695"
     inkscape:window-height="1317"
     inkscape:window-x="63"
     inkscape:window-y="56"
     inkscape:window-maximized="0"
     fit-margin-top="10"
     fit-margin-right="10"
     fit-margin-bottom="10"
     fit-margin-left="10" />
  <metadata
     id="metadata7">
    <rdf:RDF>
      <cc:Work
         rdf:about="">
        <dc:format>image/svg+xml</dc:format>
        <dc:type
           rdf:resource="http://purl.org/dc/dcmitype/StillImage" />
        <dc:title>NuvlaBox Logo</dc:title>
        <dc:date>21jan2014</dc:date>
        <dc:creator>
          <cc:Agent>
            <dc:title>SixSq Sarl</dc:title>
          </cc:Agent>
        </dc:creator>
        <dc:publisher>
          <cc:Agent>
            <dc:title>SixSq Sarl</dc:title>
          </cc:Agent>
        </dc:publisher>
        <dc:subject>
          <rdf:Bag>
            <rdf:li>NuvlaBox.</rdf:li>
          </rdf:Bag>
        </dc:subject>
        <dc:description>Official vector version of the NuvlaBox logo.</dc:description>
      </cc:Work>
    </rdf:RDF>
  </metadata>
  <g
     inkscape:groupmode="layer"
     id="g4246"
     inkscape:label="Text"
     style="display:inline"
     transform="translate(-308.39075,-28.557988)"
     sodipodi:insensitive="true">
    <path
       style="font-style:normal;font-variant:normal;font-weight:bold;font-stretch:normal;font-size:medium;line-height:125%;font-family:Futura;-inkscape-font-specification:'Futura Bold';text-align:center;letter-spacing:0px;word-spacing:0px;writing-mode:lr-tb;text-anchor:middle;fill:#aa0000;fill-opacity:1;stroke:none;stroke-width:1px;stroke-linecap:butt;stroke-linejoin:miter;stroke-opacity:1"
       d="m 561.01172,10 0,90.83203 -55.19336,0 -32.64844,70.38281 a 322.5,3 0 0 1 54.2793,0.10157 l 33.5625,-64.24414 0,64.35937 a 322.5,3 0 0 1 103.13867,0.65625 c 0.46708,-8.31117 3.39801,-15.35166 8.80859,-21.11133 6.1128,-6.49486 14.32722,-9.74218 24.64258,-9.74218 10.31534,0 18.43367,3.24732 24.35547,9.74218 5.79435,5.97543 8.8387,13.32715 9.14063,22.04883 a 322.5,3 0 0 1 25.60546,1.16406 322.5,3 0 0 1 -25.59374,1.16993 c -0.1853,9.15406 -3.23078,16.78986 -9.15235,22.89648 -5.9218,6.11281 -14.04013,9.16797 -24.35547,9.16797 -10.31536,0 -18.52978,-3.05516 -24.64258,-9.16797 -5.54208,-5.89965 -8.49034,-13.22275 -8.8457,-21.9668 a 322.5,3 0 0 1 -103.10156,0.6543 l 0,70.88281 52.15039,0 0,-51.23047 c 0.70581,2.59157 1.5308,5.15291 2.49023,7.67774 3.62948,9.36023 8.78679,17.76487 15.47266,25.21484 6.68588,7.25896 14.61206,12.98886 23.78125,17.19141 9.1692,4.01152 19.00729,6.01758 29.51367,6.01758 9.16923,0 17.76606,-1.81389 25.78906,-5.44336 8.02307,-3.62948 14.2314,-8.88286 18.625,-15.75977 l 0.57227,0 0,16.33203 52.15039,0 0,-10.66601 c 1.39792,2.34045 3.11592,4.55797 5.15234,6.65429 6.49487,6.49485 14.42105,9.74219 23.78125,9.74219 9.3602,0 17.28827,-3.24734 23.78321,-9.74219 6.49486,-6.68588 9.74218,-14.61205 9.74218,-23.78125 0,-9.36023 -3.24732,-17.28835 -9.74218,-23.7832 -6.49494,-6.49486 -14.42301,-9.74219 -23.78321,-9.74219 -9.3602,0 -17.28638,3.24733 -23.78125,9.74219 -2.03647,2.03646 -3.75441,4.21308 -5.15234,6.53125 l 0,-101.94922 -52.15039,0 0,14.32813 c -5.34873,-6.30384 -12.12968,-11.08071 -20.34375,-14.32813 -8.02307,-3.247424 -16.4277,-4.871094 -25.21484,-4.871092 -10.6974,0 -20.5355,2.102145 -29.51368,6.304682 -8.97817,4.01154 -16.81022,9.64729 -23.49609,16.90626 -6.68589,7.25894 -11.84319,15.66358 -15.47266,25.21484 -0.83787,2.28087 -1.56942,4.59638 -2.20312,6.94531 l 0,-141.33203 -52.15039,0 z M 10,31.777344 l 0,216.048826 56.162109,0 0,-132.38086 0.572266,0 45.562505,58.63477 a 322.5,3 0 0 1 113.46679,-2.17578 l 0,-140.126956 -56.16211,0 0,132.093746 -0.57226,0 L 66.162109,31.777344 10,31.777344 Z m 220.75195,69.054686 0,71.03125 a 322.5,3 0 0 1 52.15039,-0.32031 l 0,-70.71094 -52.15039,0 z m 104.29883,0 0,70.50586 a 322.5,3 0 0 1 52.15039,-0.11328 l 0,-51.25195 26.85938,51.22461 a 322.5,3 0 0 1 20.14257,-0.008 322.5,3 0 0 1 34.32813,0.0176 l -32.91406,-70.375 -48.41602,0 -52.15039,0 z m -222.50195,73.57227 57.05273,73.42187 56.16211,0 0,-71.34765 A 322.5,3 0 0 1 112.54883,174.4043 Z m 118.20312,2.11132 0,12.85743 c 0,11.84356 1.90997,21.87186 5.73047,30.08593 4.01152,8.02306 9.45513,14.51773 16.33203,19.48438 7.06792,4.77563 15.28235,8.21513 24.64258,10.31641 9.55125,2.2923 20.05803,3.4375 31.51953,3.4375 11.4615,0 21.8722,-1.1452 31.23242,-3.4375 9.55126,-2.10128 17.76568,-5.54078 24.64258,-10.31641 7.06792,-4.77562 12.51153,-11.27029 16.33203,-19.48438 4.01152,-8.21407 6.01758,-18.24237 6.01758,-30.08593 l 0,-12.22071 a 322.5,3 0 0 1 -52.15039,-0.11132 l 0,2.30273 c 0,10.31535 -1.90997,18.24348 -5.73047,23.7832 -3.62948,5.34871 -10.41045,8.02344 -20.34375,8.02344 -9.9333,0 -16.81036,-2.67473 -20.63086,-8.02344 -3.62948,-5.53972 -5.44336,-13.46785 -5.44336,-23.7832 l 0,-2.50586 a 322.5,3 0 0 1 -52.15039,-0.32227 z m 293.69336,0.55274 a 322.5,3 0 0 1 -90.24219,0.12109 322.5,3 0 0 1 -17.0039,-0.008 l 37.04297,70.64453 33.23828,0 36.96484,-70.75781 z"
       transform="translate(308.39075,28.557988)"
       id="path4252"
       inkscape:connector-curvature="0" />
  </g>
</svg>
