<?xml version="1.0" encoding="UTF-8" standalone="no"?>
<!-- Created with Inkscape (http://www.inkscape.org/) -->

<svg
   xmlns:dc="http://purl.org/dc/elements/1.1/"
   xmlns:cc="http://creativecommons.org/ns#"
   xmlns:rdf="http://www.w3.org/1999/02/22-rdf-syntax-ns#"
   xmlns:svg="http://www.w3.org/2000/svg"
   xmlns="http://www.w3.org/2000/svg"
   xmlns:xlink="http://www.w3.org/1999/xlink"
   xmlns:sodipodi="http://sodipodi.sourceforge.net/DTD/sodipodi-0.dtd"
   xmlns:inkscape="http://www.inkscape.org/namespaces/inkscape"
   width="882.55853"
   height="312.29688"
   id="svg2"
   version="1.1"
   inkscape:version="0.91 r13725"
   sodipodi:docname="nuvla_logo_red_on_transparent.svg"
   inkscape:export-filename="/Users/sixsq_rob/Dropbox/dev/design/20140121_Multimedia_image_repo_canvas/NuvlaBox/nuvlabox_logo_red_on_white_64px.png"
   inkscape:export-xdpi="3.5799999"
   inkscape:export-ydpi="3.5799999">
  <title
     id="title4041">NuvlaBox Logo</title>
  <defs
     id="defs4">
    <inkscape:path-effect
       effect="skeletal"
       id="path-effect3203"
       is_visible="true"
       pattern="m 0,-7 c 0,-2.76 2.24,-5 5,-5 2.76,0 5,2.24 5,5 0,2.76 -2.24,5 -5,5 -2.76,0 -5,-2.24 -5,-5 z"
       copytype="single_stretched"
       prop_scale="1"
       scale_y_rel="false"
       spacing="0"
       normal_offset="0"
       tang_offset="0"
       prop_units="false"
       vertical_pattern="false"
       fuse_tolerance="0" />
    <color-profile
       name="sRGB-IEC61966-2.1"
       xlink:href="/System/Library/ColorSync/Profiles/sRGB Profile.icc"
       id="color-profile2985" />
  </defs>
  <sodipodi:namedview
     id="base"
     pagecolor="#ffffff"
     bordercolor="#666666"
     borderopacity="1.0"
     inkscape:pageopacity="0.0"
     inkscape:pageshadow="2"
     inkscape:zoom="0.49497475"
     inkscape:cx="397.54839"
     inkscape:cy="-114.57601"
     inkscape:document-units="px"
     inkscape:current-layer="layer2"
     showgrid="false"
     inkscape:showpageshadow="false"
     borderlayer="true"
     inkscape:window-width="1695"
     inkscape:window-height="1317"
     inkscape:window-x="63"
     inkscape:window-y="56"
     inkscape:window-maximized="0"
     fit-margin-top="10"
     fit-margin-right="10"
     fit-margin-bottom="10"
     fit-margin-left="10" />
  <metadata
     id="metadata7">
    <rdf:RDF>
      <cc:Work
         rdf:about="">
        <dc:format>image/svg+xml</dc:format>
        <dc:type
           rdf:resource="http://purl.org/dc/dcmitype/StillImage" />
        <dc:title>NuvlaBox Logo</dc:title>
        <dc:date>21jan2014</dc:date>
        <dc:creator>
          <cc:Agent>
            <dc:title>SixSq Sarl</dc:title>
          </cc:Agent>
        </dc:creator>
        <dc:publisher>
          <cc:Agent>
            <dc:title>SixSq Sarl</dc:title>
          </cc:Agent>
        </dc:publisher>
        <dc:subject>
          <rdf:Bag>
            <rdf:li>NuvlaBox.</rdf:li>
          </rdf:Bag>
        </dc:subject>
        <dc:description>Official vector version of the NuvlaBox logo.</dc:description>
      </cc:Work>
    </rdf:RDF>
  </metadata>
  <g
     inkscape:groupmode="layer"
     id="layer2"
     inkscape:label="Text"
     style="display:inline"
     transform="translate(-289.92088,-3.304421)"
     sodipodi:insensitive="true">
    <path
       style="font-style:normal;font-variant:normal;font-weight:bold;font-stretch:normal;font-size:medium;line-height:125%;font-family:Futura;-inkscape-font-specification:'Futura Bold';text-align:center;letter-spacing:0px;word-spacing:0px;writing-mode:lr-tb;text-anchor:middle;fill:#aa0000;fill-opacity:1;stroke:none;stroke-width:1px;stroke-linecap:butt;stroke-linejoin:miter;stroke-opacity:1"
       d="m 897.7451,13.304441 0,192.978509 a 363.65491,4.0406103 0 0 1 123.875,0.86329 c 0.6801,-9.67837 4.1842,-17.89994 10.5293,-24.6543 7.3362,-7.79459 17.1943,-11.69141 29.5742,-11.69141 12.3797,0 22.1216,3.89682 29.2285,11.69141 6.8315,7.04502 10.4792,15.68414 10.9492,25.91016 a 363.65491,4.0406103 0 0 1 32.7793,1.66406 363.65491,4.0406103 0 0 1 -32.7441,1.66601 c -0.2177,10.99635 -3.8727,20.16609 -10.9844,27.5 -7.1069,7.33608 -16.8488,11.00391 -29.2285,11.00391 -12.3799,0 -22.238,-3.66783 -29.5742,-11.00391 -6.6256,-7.053 -10.1607,-15.80005 -10.6094,-26.24023 a 363.65491,4.0406103 0 0 1 -123.7949,0.85937 l 0,37.71875 c -1.91957,-5.45594 -5.06412,-10.37076 -9.4375,-14.74414 -7.79459,-7.79458 -17.30959,-11.69336 -28.54297,-11.69336 -9.75903,0 -18.2172,2.94726 -25.38086,8.83008 l 10.41992,-19.94531 a 363.65491,4.0406103 0 0 1 -73.77734,0.0898 363.65491,4.0406103 0 0 1 -54.76172,-0.0527 l 44.39648,84.66797 39.89063,0 19.09961,-36.56055 c -0.0728,1.05381 -0.1211,2.11914 -0.1211,3.20508 0,11.00413 3.89878,20.51913 11.69336,28.54297 7.79459,7.79458 17.30765,11.6914 28.54102,11.6914 11.23338,0 20.74838,-3.89682 28.54297,-11.6914 4.37336,-4.50199 7.51793,-9.47386 9.4375,-14.91406 l 0,19.72656 62.58594,0 0,-61.66406 c 0.85761,3.17295 1.86694,6.30485 3.04101,9.39453 4.3558,11.23337 10.54637,21.32086 18.57031,30.26172 8.0239,8.71159 17.53892,15.58925 28.54294,20.63281 11.0043,4.8143 22.8108,7.22265 35.42,7.22265 11.0042,0 21.3203,-2.17935 30.9491,-6.53515 9.6287,-4.3558 17.0788,-10.65902 22.3516,-18.91211 l 0.6875,0 0,19.59961 62.5859,0 0,-176.4082 -62.5859,0 0,17.19335 c -6.4191,-7.56533 -14.5581,-13.29607 -24.416,-17.19335 -9.6287,-3.8973 -19.716,-5.84766 -30.2617,-5.84766 -12.8383,0 -24.6449,2.52286 -35.4199,7.5664 -10.77489,4.81431 -20.17337,11.57747 -28.19729,20.28907 -8.0239,8.7116 -14.21451,18.79909 -18.57031,30.26172 -1.02744,2.79693 -1.92564,5.63537 -2.69726,8.51757 l 0,-169.796869 -62.58594,0 z M 419.5908,116.46655 c -12.60889,0 -23.38337,2.17936 -32.32422,6.53516 -8.94085,4.3558 -16.96544,11.69145 -24.07226,22.00781 l -0.6875,0 0,-22.69531 -62.58594,0 0,176.4082 62.58594,0 0,-91.4707 c 0,-12.37964 2.52284,-22.23814 7.5664,-29.57422 5.04356,-7.56534 13.40969,-11.34766 25.10157,-11.34766 6.41907,0 11.46282,1.26143 15.13085,3.7832 3.89731,2.29253 6.76364,5.50236 8.59766,9.62891 1.83402,4.12655 2.98095,8.82485 3.43945,14.09766 0.56245,4.31204 0.88199,9.35282 0.98438,15.04492 a 363.65491,4.0406103 0 0 1 62.63281,-1.32031 l 0,-17.84961 c 0,-22.92526 -5.38724,-40.80834 -16.16211,-53.64649 -10.77487,-13.06739 -27.51105,-19.60156 -50.20703,-19.60156 z m 72.98438,5.84766 0,85.15234 a 363.65491,4.0406103 0 0 1 62.58593,-0.64649 l 0,-84.50585 -62.58593,0 z m 125.17187,0 0,84.09179 a 363.65491,4.0406103 0 0 1 62.58594,-0.25 l 0,-60.62305 31.75,60.54688 a 363.65491,4.0406103 0 0 1 58.94336,-0.0547 363.65491,4.0406103 0 0 1 6.43555,0.004 l -39.15235,-83.71484 -57.97656,0 -62.58594,0 z m 204.8125,0 -38.83594,83.71679 a 363.65491,4.0406103 0 0 1 65.20508,0.0898 l 43.78125,-83.80664 -70.15039,0 z m -399.20312,88.92382 c 0.004,0.51312 0.0176,0.99201 0.0176,1.51563 l 0,85.96875 62.58594,0 0,-86.14844 a 363.65491,4.0406103 0 0 1 -62.60351,-1.33594 z m 69.21875,1.41992 0,15.91407 c 0,14.21366 2.2919,26.24956 6.87695,36.10742 4.81431,9.62861 11.34848,17.42225 19.60156,23.38281 8.48235,5.73132 18.34085,9.85909 29.57422,12.38086 11.46263,2.75103 24.07102,4.12695 37.82617,4.12695 13.75516,0 26.24905,-1.37592 37.48242,-4.12695 11.46263,-2.52177 21.32113,-6.64954 29.57422,-12.38086 8.48234,-5.73131 15.01456,-13.52495 19.59961,-23.38281 4.8143,-9.85786 7.22266,-21.89376 7.22266,-36.10742 l 0,-14.59961 a 363.65491,4.0406103 0 0 1 -62.58594,-0.24805 l 0,2.8125 c 0,12.37964 -2.2919,21.8927 -6.87695,28.54102 -4.3558,6.41907 -12.49488,9.6289 -24.41602,9.6289 -11.92113,0 -20.17471,-3.20983 -24.75976,-9.6289 -4.3558,-6.64832 -6.53321,-16.16138 -6.53321,-28.54102 l 0,-3.22461 a 363.65491,4.0406103 0 0 1 -62.58593,-0.6543 z"
       id="path3402"
       inkscape:connector-curvature="0" />
  </g>
</svg>
